<svg height="464pt" viewBox="0 0 464.00617 464" width="464pt" xmlns="http://www.w3.org/2000/svg"><path d="m304 136.003906h-144l-80-72h136zm0 0" fill="#e94f4f"/><path d="m160 136.003906h144v152h-144zm0 0" fill="#5ac6d4"/><path d="m160 288.003906h-160v-152l80-72 80 72zm0 0" fill="#60d1e0"/><path d="m56 224.003906h48v64h-48zm0 0" fill="#348fd9"/><path d="m64 152.003906h32v40h-32zm0 0" fill="#ffb531"/><path d="m160 136.003906h144v16h-144zm0 0" fill="#3fb7c7"/><path d="m64 152.003906h32v16h-32zm0 0" fill="#ffa912"/><path d="m56 224.003906h48v16h-48zm0 0" fill="#3086cd"/><path d="m240 352.003906h-176c-35.347656 0-64-28.65625-64-64h464c0 35.34375-28.652344 64-64 64h-40" fill="#e0e0de"/><path d="m368 288.003906c0 35.34375-28.652344 64-64 64h96c35.347656 0 64-28.65625 64-64zm0 0" fill="#d6d6d4"/><path d="m247.375 350.890625-2.039062 1.113281h-61.335938c-13.253906 0-24 10.746094-24 24s10.746094 24 24 24h-16l-90.96875-41.664062c-8.09375-3.707032-17.515625-3.042969-25.007812 1.765625-7.492188 4.808593-12.023438 13.097656-12.023438 22v1.738281c.007812 9.894531 5.601562 18.9375 14.457031 23.359375l93.269531 46.640625c13.332032 6.671875 28.03125 10.148438 42.9375 10.160156h169.335938v-112c-34.804688-19.890625-77.433594-20.3125-112.625-1.113281zm0 0" fill="#fec9a3"/><path d="m272 408.003906h-88c-4.417969 0-8-3.582031-8-8 0-4.417968 3.582031-8 8-8h88c4.417969 0 8 3.582032 8 8 0 4.417969-3.582031 8-8 8zm0 0" fill="#feb784"/><path d="m360 352.003906h104v112h-104zm0 0" fill="#348fd9"/><path d="m416 424.003906c0 8.835938-7.164062 16-16 16s-16-7.164062-16-16c0-8.835937 7.164062-16 16-16s16 7.164063 16 16zm0 0" fill="#2a71ad"/><path d="m440 240.003906v-112c0-44.183594-35.816406-80-80-80l24-47.99999975h-96l24 47.99999975c-44.183594 0-80 35.816406-80 80v112l-14.71875 9.816406c-5.804688 3.859376-9.289062 10.367188-9.28125 17.335938 0 11.511719 9.332031 20.847656 20.847656 20.847656h214.304688c11.515625 0 20.847656-9.335937 20.847656-20.847656 0-6.96875-3.480469-13.476562-9.28125-17.34375zm0 0" fill="#ffb531"/><path d="m454.71875 249.820312-14.71875-9.816406v-112c.015625-18.953125-6.726562-37.285156-19.015625-51.710937-29.152344 93.515625-96.410156 170.390625-185.222656 211.710937h207.390625c9.1875.003906 17.292968-6.003906 19.957031-14.796875s-.742187-18.292969-8.390625-23.386719zm0 0" fill="#ffa912"/><path d="m348 160.003906h-24c-6.628906 0-12-5.375-12-12 0-6.628906 5.371094-12 12-12h44v-16h-24v-16h-16v16h-4c-15.464844 0-28 12.535156-28 28s12.535156 28 28 28h24c6.628906 0 12 5.371094 12 12 0 6.625-5.371094 12-12 12h-44v16h24v16h16v-16h4c15.464844 0 28-12.535156 28-28s-12.535156-28-28-28zm0 0" fill="#f98500"/></svg>