<svg id="Layer_1" enable-background="new 0 0 512.263 512.263" height="512" viewBox="0 0 512.263 512.263" width="512" xmlns="http://www.w3.org/2000/svg"><g><path d="m494.416 489.507h-476.569c-9.857 0-17.847-7.99-17.847-17.847v-352.88c0-9.856 7.99-17.847 17.847-17.847h476.57c9.856 0 17.847 7.99 17.847 17.847v352.88c-.001 9.857-7.991 17.847-17.848 17.847z" fill="#ff641a"/><path d="m494.416 100.933h-237.548v388.573h237.549c9.856 0 17.847-7.99 17.847-17.846v-352.88c-.001-9.856-7.991-17.847-17.848-17.847z" fill="#f03800"/><g><path d="m354.046 121.684c-8.81.089-16.023-6.981-16.112-15.791l-.528-50.904-162.916-.49.528 52.556c.089 8.81-6.981 16.023-15.791 16.112s-16.023-6.981-16.112-15.791l-.689-68.507c-.089-8.81 6.981-16.023 15.791-16.112l194.819.643c8.81-.089 16.023 6.981 16.112 15.791l.689 66.38c.089 8.81-6.981 16.024-15.791 16.113z" fill="#00337a"/></g><path d="m353.036 23.415-96.169-.318v31.664l80.538.242.528 50.904c.089 8.81 7.302 15.88 16.112 15.791s15.88-7.302 15.791-16.112l-.689-66.38c-.087-8.809-7.301-15.879-16.111-15.791z" fill="#002659"/><path d="m4.331 107.133 58.386 167.986c6.552 19.09 24.534 31.915 44.752 31.915h305.258c20.402 0 38.505-13.055 44.912-32.389l53.615-161.797c-2.205-6.345-8.271-11.914-15.032-11.914h-474.304c-6.714-.001-14.213.938-17.587 6.199z" fill="#f03800"/><path d="m496.222 100.933h-239.354v206.1h155.859c20.402 0 38.505-13.055 44.912-32.389l53.615-161.797c-2.206-6.344-8.272-11.914-15.032-11.914z" fill="#cd0000"/><path d="m291.857 348.674h-71.451c-21.811 0-39.492-17.681-39.492-39.492v-5.015c0-21.811 17.681-39.492 39.492-39.492h71.451c21.811 0 39.492 17.681 39.492 39.492v5.015c0 21.811-17.681 39.492-39.492 39.492z" fill="#ffed00"/><path d="m291.857 264.675h-34.989v83.999h34.989c21.811 0 39.492-17.681 39.492-39.492v-5.015c0-21.811-17.681-39.492-39.492-39.492z" fill="#ffd400"/></g></svg>