<svg id="Capa_1" enable-background="new 0 0 512 512" height="512" viewBox="0 0 512 512" width="512" xmlns="http://www.w3.org/2000/svg"><g><g><g><circle cx="424.585" cy="165.463" fill="#f1d0a5" r="52.033"/><path d="m450.466 120.331c4.382 7.624 6.9 16.456 6.9 25.88 0 28.737-23.296 52.033-52.033 52.033-9.425 0-18.256-2.519-25.88-6.9 8.978 15.623 25.82 26.152 45.132 26.152 28.737 0 52.033-23.296 52.033-52.033 0-19.312-10.529-36.154-26.152-45.132z" fill="#f1b986"/><path d="m512 259.121v92.727c0 5.69-4.612 10.302-10.302 10.302h-117.698v-48.161h-46.832v-54.867c0-22.991 18.638-41.63 41.63-41.63h91.573c22.991 0 41.629 18.638 41.629 41.629z" fill="#4073c8"/><path d="m470.374 217.496h-24.976c22.989 0 41.626 18.637 41.626 41.626v103.024h14.674c5.69 0 10.302-4.612 10.302-10.302v-92.723c0-22.988-18.637-41.625-41.626-41.625z" fill="#30579d"/></g><g><circle cx="87.415" cy="165.463" fill="#f1d0a5" r="52.033"/><path d="m113.295 120.331c4.382 7.624 6.9 16.456 6.9 25.88 0 28.737-23.296 52.033-52.033 52.033-9.425 0-18.256-2.519-25.88-6.9 8.978 15.623 25.82 26.152 45.132 26.152 28.737 0 52.033-23.296 52.033-52.033 0-19.312-10.529-36.154-26.152-45.132z" fill="#f1b986"/><path d="m174.832 259.121v54.868h-46.832v48.161h-117.698c-5.69 0-10.302-4.612-10.302-10.302v-92.727c0-22.991 18.638-41.63 41.63-41.63h91.573c22.991.001 41.629 18.639 41.629 41.63z" fill="#4073c8"/><path d="m133.203 217.496h-24.976c22.989 0 41.626 18.637 41.626 41.626v82.421h24.976v-82.421c0-22.989-18.636-41.626-41.626-41.626z" fill="#30579d"/></g><g><path d="m333.008 137.366h-16.65v-33.301h16.65c9.196 0 16.65 7.455 16.65 16.65.001 9.196-7.454 16.651-16.65 16.651z" fill="#f1d0a5"/><path d="m283.057 229.984 46.957 12.587c31.844 8.535 53.986 37.393 53.986 70.361v49.214h-256v-49.214c0-32.968 22.142-61.826 53.986-70.362l46.957-12.587h54.114z" fill="#f6e266"/><path d="m335.858 244.401c.174 2.117.272 4.248.272 6.395 0 38.562-37.359 92.181-80.13 111.35h128v-49.214c0-30.911-19.465-58.209-48.142-68.531z" fill="#f1d333"/><path d="m228.943 229.984-31.864 8.541 6.607 23.858c4.035 14.57 21.768 20.113 33.382 10.434l18.932-15.776v-27.057z" fill="#ecf4ff"/><path d="m283.057 229.984 31.864 8.541-6.607 23.858c-4.035 14.57-21.768 20.113-33.382 10.434l-18.932-15.776v-27.057z" fill="#ecf4ff"/><path d="m256 257.041c-14.943 0-27.057-12.114-27.057-27.057v-33.301h54.114v33.301c0 14.943-12.114 27.057-27.057 27.057z" fill="#f1d0a5"/><path d="m228.943 217.929c8.445 3.084 17.558 4.77 27.057 4.77s18.612-1.686 27.057-4.77v-21.246h-54.114z" fill="#f1b986"/><path d="m195.642 83.252v60.358c0 33.335 27.023 60.358 60.358 60.358s60.358-27.023 60.358-60.358v-60.358z" fill="#f1d0a5"/><path d="m178.992 137.366h16.65v-33.301h-16.65c-9.196 0-16.65 7.455-16.65 16.65-.001 9.196 7.454 16.651 16.65 16.651z" fill="#f1d0a5"/><path d="m295.545 83.252v81.171c0 11.33-3.128 21.927-8.559 30.986 17.593-10.547 29.372-29.795 29.372-51.799v-60.358z" fill="#f1b986"/><path d="m178.992 75.967v28.098h77.008c11.495 0 20.813-9.318 20.813-20.813 0 11.495 9.318 20.813 20.813 20.813h33.301v-28.098c0-41.955-34.012-75.967-75.968-75.967-41.955 0-75.967 34.012-75.967 75.967z" fill="#e49542"/></g></g><g><circle cx="256" cy="422.258" fill="#ecf4ff" r="89.742"/><g><path d="m245.208 460.313c-4.652 0-9.303-1.774-12.852-5.323l-18.176-18.176c-7.098-7.098-7.098-18.607 0-25.705 7.099-7.098 18.606-7.098 25.705 0l5.323 5.324 26.907-26.907c7.099-7.098 18.606-7.098 25.705 0 7.098 7.098 7.098 18.607 0 25.705l-39.759 39.759c-3.55 3.549-8.201 5.323-12.853 5.323z" fill="#c8ea73"/></g></g></g></svg>