<svg id="Layer_1" enable-background="new 0 0 512 512" height="512" viewBox="0 0 512 512" width="512" xmlns="http://www.w3.org/2000/svg"><g><path d="m159.6 223.867c0-8.284-6.716-15-15-15h-65.333c-8.284 0-15 6.716-15 15v258.133c0 8.284 6.716 15 15 15h80.333c8.284 0 15-6.716 15-15v-243.133c0-8.284-6.716-15-15-15z" fill="#ffe100"/><path d="m159.6 223.867c0-8.284-6.716-15-15-15h-32.667v288.133h47.667c8.284 0 15-6.716 15-15v-243.133c0-8.284-6.716-15-15-15z" fill="#ffaf00"/><path d="m239.933 497h-65.333c-8.284 0-15-6.716-15-15v-402.733c0-8.284 6.716-15 15-15h65.333c8.284 0 15 6.716 15 15v402.733c0 8.284-6.716 15-15 15z" fill="#00b4ff"/><path d="m239.933 64.267h-32.667v432.733h32.667c8.284 0 15-6.716 15-15v-402.733c0-8.285-6.716-15-15-15z" fill="#0078ff"/><path d="m384.533 304.2c0-8.284-6.716-15-15-15h-65.333c-8.284 0-15 6.716-15 15v177.8c0 8.284 6.716 15 15 15h80.333c8.284 0 15-6.716 15-15v-162.8c0-8.284-6.716-15-15-15z" fill="#ffe100"/><path d="m384.533 304.2c0-8.284-6.716-15-15-15h-32.667v207.8h47.667c8.284 0 15-6.716 15-15v-162.8c0-8.284-6.716-15-15-15z" fill="#ffaf00"/><path d="m464.866 497h-65.333c-8.284 0-15-6.716-15-15v-467c0-8.284 6.716-15 15-15h65.333c8.284 0 15 6.716 15 15v467c0 8.284-6.716 15-15 15z" fill="#00b4ff"/><path d="m464.866 0h-32.666v497h32.667c8.284 0 15-6.716 15-15v-467c-.001-8.284-6.717-15-15.001-15z" fill="#0078ff"/><path d="m497 512h-482c-8.284 0-15-6.716-15-15v-482c0-8.284 6.716-15 15-15s15 6.716 15 15v467h467c8.284 0 15 6.716 15 15s-6.716 15-15 15z" fill="#2d3741"/><path d="m512 497c0-8.284-6.716-15-15-15h-385.067v30h385.067c8.284 0 15-6.716 15-15z" fill="#0a141e"/></g></svg>