<svg id="Capa_1" enable-background="new 0 0 510 510" height="512" viewBox="0 0 510 510" width="512" xmlns="http://www.w3.org/2000/svg"><g><path d="m254.999 8.07c-10.58-5.17-22.46-8.07-35-8.07-44.11 0-80 35.89-80 80v85h30v-85c0-27.57 22.43-50 50-50 13.61 0 25.97 5.47 35 14.33 9.25 9.08 15 21.71 15 35.67v85h30v-85c0-31.57-18.38-58.93-45-71.93z" fill="#fff68e"/><path d="m450.699 510h-158.2l-18.39-137.11 18.39-222.89h141.83z" fill="#b40042"/><path d="m292.499 150v360h-141.83l-45.374-147.791 45.374-212.209z" fill="#ff415b"/><path d="m150.669 150h-75.004l-16.364 360h91.368z" fill="#ff8859"/><path d="m375 80v130h-30v-130c0-27.57-22.43-50-50-50h-2.5v-30h2.5c44.11 0 80 35.89 80 80z" fill="#ff9f22"/><path d="m292.5 0v30h-2.5c-13.61 0-25.97 5.47-35 14.33-9.25 9.08-15 21.71-15 35.67v130h-30v-130c0-31.57 18.38-58.93 45-71.93 10.58-5.17 22.46-8.07 35-8.07z" fill="#ffda44"/></g></svg>