<svg id="Capa_1" enable-background="new 0 0 512 512" height="512" viewBox="0 0 512 512" width="512" xmlns="http://www.w3.org/2000/svg"><g><g><path d="m256 451.926c-92.528 0-167.807-75.277-167.807-167.807 0-92.529 75.278-167.806 167.807-167.806s167.806 75.277 167.806 167.806c0 92.53-75.277 167.807-167.806 167.807zm0-320.744c-84.33 0-152.938 68.608-152.938 152.937 0 84.33 68.608 152.938 152.938 152.938 84.329 0 152.937-68.608 152.937-152.938.001-84.329-68.607-152.937-152.937-152.937z" fill="#c6d0da"/></g><g><g><path d="m137.207 63.804h-37.248c-23.914 0-43.301 19.386-43.301 43.301v21.627l4 10.16h115.549l4-10.16v-21.927c0-23.749-19.251-43.001-43-43.001z" fill="#784033"/></g><g><path d="m137.207 63.804h-37.627c-.409 0-.814.019-1.22.031 23.139.648 41.702 19.595 41.702 42.891v32.165h36.146l4-10.16v-21.927c-.001-23.748-19.252-43-43.001-43z" fill="#61362b"/></g><g><path d="m233.595 335.991h-230.325c-1.806 0-3.27-1.464-3.27-3.27 0-54.177 43.919-98.096 98.095-98.096h40.674c54.177 0 98.095 43.919 98.095 98.096.001 1.806-1.463 3.27-3.269 3.27z" fill="#5766cb"/></g><g><path d="m138.77 234.626h-40.675c-.445 0-.888.011-1.332.017 53.562.714 96.764 44.347 96.764 98.079 0 1.806-1.464 3.27-3.27 3.27h43.338c1.806 0 3.27-1.464 3.27-3.27 0-54.178-43.919-98.096-98.095-98.096z" fill="#3d4fc3"/></g><g><path d="m118.433 286.286c-23.935 0-43.338-19.403-43.338-43.338v-59.982h86.676v59.982c-.001 23.935-19.404 43.338-43.338 43.338z" fill="#e2a770"/></g><g><path d="m139.144 182.965v59.983c0 20.02-13.578 36.86-32.025 41.837 3.608.973 7.398 1.501 11.313 1.501 23.935 0 43.338-19.403 43.338-43.338v-59.983z" fill="#d5985c"/></g><g><path d="m192.333 147.043c-3.983-1.876-8.216-2.068-12.125.417v-18.729c0-13.686-11.095-24.781-24.781-24.781h-73.988c-13.686 0-24.781 11.095-24.781 24.781v18.729c-3.909-2.486-8.142-2.293-12.125-.417-6.776 3.191-10.264 10.036-4.866 21.498 4.205 8.929 12.085 17.008 18.565 18.634 3.608 16.144 13.267 30.518 27.291 39.944l17.952 12.066c9.045 6.079 20.87 6.079 29.914 0l5.755-3.868 11.574-11.38s7.921-2.305 11.052-5.532c8.397-8.653 14.235-19.472 16.863-31.231 6.481-1.625 14.36-9.704 18.565-18.634 5.399-11.46 1.911-18.306-4.865-21.497z" fill="#e2a770"/></g><g><path d="m192.333 147.043c-3.983-1.876-8.216-2.068-12.125.417v-18.729c0-13.686-11.095-24.781-24.781-24.781h-6.297v68.989c0 21.74-10.822 42.053-28.865 54.18l-17.371 11.676.584.393c9.044 6.078 20.866 6.078 29.91-.001l17.954-12.068c14.025-9.427 23.683-23.8 27.291-39.944 6.481-1.625 14.36-9.704 18.565-18.634 5.399-11.461 1.911-18.307-4.865-21.498z" fill="#d5985c"/></g><g><g><circle cx="92.969" cy="153.033" fill="#524798" r="8.643"/></g><g><circle cx="143.087" cy="153.033" fill="#524798" r="8.643"/></g></g><g><path d="m118.432 203.488c-7.69 0-14.765-2.657-19.413-7.29-2.908-2.898-2.916-7.606-.016-10.514 2.898-2.909 7.606-2.915 10.514-.016 1.366 1.361 4.521 2.951 8.915 2.951 4.396 0 7.55-1.589 8.915-2.951 2.907-2.899 7.614-2.894 10.514.015 2.899 2.907 2.892 7.614-.015 10.514-4.646 4.634-11.723 7.291-19.414 7.291z" fill="#e28086"/></g></g><g><g><path d="m393.567 47.113c-56.158 0-101.683 45.525-101.683 101.682v149.667h203.366v-149.666c0-56.158-45.525-101.683-101.683-101.683z" fill="#784033"/></g><g><path d="m393.567 47.113c-8.21 0-16.19.98-23.837 2.817 44.656 10.728 77.846 50.918 77.846 98.866v149.667h47.674v-149.667c0-56.158-45.525-101.683-101.683-101.683z" fill="#61362b"/></g><g><path d="m508.73 335.991h-230.325c-1.806 0-3.27-1.464-3.27-3.27 0-54.177 43.919-98.096 98.096-98.096h40.674c54.177 0 98.095 43.919 98.095 98.096 0 1.806-1.464 3.27-3.27 3.27z" fill="#eaaadd"/></g><g><path d="m413.905 234.626h-40.675c-.445 0-.888.011-1.332.017 53.562.714 96.764 44.347 96.764 98.078 0 1.806-1.464 3.27-3.27 3.27h43.338c1.806 0 3.27-1.464 3.27-3.27 0-54.176-43.919-98.095-98.095-98.095z" fill="#e490d0"/></g><g><path d="m393.567 285.308c-23.935 0-43.338-19.403-43.338-43.338v-59.982h86.676v59.982c0 23.935-19.403 43.338-43.338 43.338z" fill="#ffcbbe"/></g><g><path d="m414.279 181.988v59.983c0 20.02-13.578 36.86-32.025 41.837 3.608.973 7.398 1.501 11.313 1.501 23.935 0 43.338-19.403 43.338-43.338v-59.983z" fill="#eaac9d"/></g><g><path d="m432.484 110.871h-78.191c-12.624 0-22.858 10.234-22.858 22.858v35.305c0 21.803 10.853 42.174 28.948 54.337l18.004 12.101c9.071 6.097 20.93 6.097 30.001 0l5.89-3.959 10.006-10.288s9.466-3.389 12.62-6.647c11.703-12.085 18.437-28.371 18.437-45.545v-35.305c.001-12.623-10.233-22.857-22.857-22.857z" fill="#ffcbbe"/></g><g><path d="m432.484 110.871h-2.427v52.744c0 21.802-10.853 42.174-28.948 54.337l-18.005 12.102c-2.361 1.587-4.913 2.751-7.553 3.512l2.837 1.907c9.071 6.097 20.929 6.098 30 .001 5.436-3.654 11.776-7.916 18.007-12.103 18.095-12.162 28.947-32.533 28.947-54.335 0-11.807 0-24.682 0-35.311 0-12.626-10.234-22.854-22.858-22.854z" fill="#eaac9d"/></g><g><g><circle cx="368.104" cy="152.056" fill="#524798" r="8.643"/></g><g><circle cx="418.222" cy="152.056" fill="#524798" r="8.643"/></g></g><g><path d="m393.567 202.51c-7.69 0-14.765-2.657-19.413-7.29-2.908-2.898-2.916-7.606-.016-10.514 2.898-2.909 7.606-2.914 10.514-.016 1.366 1.361 4.521 2.952 8.915 2.952 4.396 0 7.55-1.589 8.915-2.951 2.907-2.899 7.614-2.894 10.514.015 2.899 2.907 2.892 7.614-.014 10.514-4.648 4.633-11.724 7.29-19.415 7.29z" fill="#d82e3d"/></g></g><g><g><path d="m371.163 464.887h-230.326c-1.806 0-3.27-1.464-3.27-3.27 0-54.177 43.919-98.095 98.096-98.095h40.674c54.177 0 98.095 43.919 98.095 98.095.001 1.806-1.463 3.27-3.269 3.27z" fill="#b1e4f9"/></g><g><path d="m276.337 363.521h-40.674c-.445 0-.888.011-1.332.017 53.562.714 96.764 44.347 96.764 98.078 0 1.806-1.464 3.27-3.27 3.27h43.338c1.806 0 3.27-1.464 3.27-3.27 0-54.176-43.919-98.095-98.096-98.095z" fill="#90d8f9"/></g><g><g><path d="m274.775 191.723h-37.249c-23.914 0-43.301 19.386-43.301 43.301v21.627l5 10.16h114.549l4-10.16v-21.927c.001-23.75-19.251-43.001-42.999-43.001z" fill="#ffd064"/></g><g><path d="m274.775 191.723h-37.627c-.409 0-.814.019-1.22.031 23.139.648 41.702 19.595 41.702 42.891v32.165h36.146l4-10.16v-21.927c-.001-23.749-19.253-43-43.001-43z" fill="#ffc250"/></g><g><path d="m256 414.204c-23.935 0-43.338-19.403-43.338-43.338v-59.983h86.676v59.983c0 23.935-19.403 43.338-43.338 43.338z" fill="#c18678"/></g><g><path d="m276.712 310.884v59.983c0 20.02-13.578 36.86-32.025 41.837 3.608.973 7.398 1.501 11.313 1.501 23.935 0 43.338-19.403 43.338-43.338v-59.983z" fill="#b46e59"/></g><g><path d="m329.9 274.962c-3.983-1.876-8.216-2.068-12.125.417v-18.729c0-13.686-11.095-24.781-24.781-24.781h-73.987c-13.686 0-24.781 11.095-24.781 24.781v18.729c-3.909-2.486-8.142-2.293-12.125-.417-6.776 3.191-10.264 10.036-4.866 21.498 4.205 8.929 12.085 17.008 18.565 18.634 3.608 16.144 13.267 30.518 27.291 39.944l17.952 12.066c9.045 6.079 20.87 6.079 29.914 0l5.755-3.868 10.085-10.205s9.41-3.48 12.541-6.706c8.397-8.653 14.235-19.473 16.863-31.232 6.481-1.625 14.36-9.704 18.565-18.634 5.398-11.461 1.91-18.306-4.866-21.497z" fill="#c18678"/></g><g><circle cx="230.537" cy="280.952" fill="#61362b" r="8.643"/></g><g><path d="m329.9 274.962c-3.983-1.876-8.216-2.068-12.125.417v-18.729c0-13.686-11.095-24.781-24.781-24.781h-6.297v68.989c0 21.74-10.822 42.053-28.865 54.18l-17.371 11.676.584.393c9.044 6.078 20.866 6.078 29.91-.001l17.954-12.068c14.025-9.427 23.683-23.8 27.291-39.944 6.481-1.625 14.36-9.704 18.565-18.634 5.399-11.462 1.911-18.307-4.865-21.498z" fill="#b46e59"/></g><g><circle cx="280.655" cy="280.952" fill="#61362b" r="8.643"/></g><g><path d="m256 331.406c-7.69 0-14.766-2.657-19.413-7.289-2.908-2.898-2.916-7.606-.016-10.514 2.899-2.909 7.607-2.915 10.514-.016 1.366 1.361 4.52 2.951 8.915 2.951s7.549-1.589 8.915-2.951c2.908-2.9 7.615-2.891 10.514.016 2.899 2.908 2.892 7.615-.016 10.514-4.647 4.632-11.723 7.289-19.413 7.289z" fill="#904f40"/></g></g></g></g></svg>