<svg id="Layer_1" enable-background="new 0 0 512.123 512.123" height="512" viewBox="0 0 512.123 512.123" width="512" xmlns="http://www.w3.org/2000/svg"><g><path d="m289.405 9.843v7.393h-65.104v-7.393h-50.552c-7.437 0-13.466 6.029-13.466 13.466v179.751h193.217v-174.886c0-10.124-8.207-18.33-18.33-18.33h-45.765z" fill="#fdbf00"/><path d="m289.405 17.237h-32.487v185.823h96.583v-181.014c0-6.739-5.463-12.203-12.203-12.203h-51.893z" fill="#ff9100"/><path d="m283.524 68.637h-53.263c-3.291 0-5.959-2.668-5.959-5.959v-52.835h65.182v52.835c-.001 3.291-2.669 5.959-5.96 5.959z" fill="#ffe470"/><path d="m256.918 68.637h26.235c3.496 0 6.33-2.834 6.33-6.33v-52.464h-32.565z" fill="#ffda2d"/><path d="m117.315 502.28h-81.687c-2.847 0-5.156-2.308-5.156-5.156v-53.804c0-2.847 2.308-5.156 5.156-5.156h81.688c2.847 0 5.156 2.308 5.156 5.156v53.804c-.001 2.848-2.309 5.156-5.157 5.156z" fill="#444"/><path d="m296.676 502.28h-81.688c-2.847 0-5.156-2.308-5.156-5.156v-53.804c0-2.847 2.308-5.156 5.156-5.156h81.688c2.847 0 5.156 2.308 5.156 5.156v53.804c0 2.848-2.309 5.156-5.156 5.156z" fill="#444"/><path d="m474.25 502.28h-81.688c-2.847 0-5.156-2.308-5.156-5.156v-53.804c0-2.847 2.308-5.156 5.156-5.156h81.688c2.847 0 5.156 2.308 5.156 5.156v53.804c0 2.848-2.308 5.156-5.156 5.156z" fill="#292929"/><path d="m192.8 199.099v7.393h-65.104v-7.393h-50.552c-7.437 0-13.466 6.029-13.466 13.466v179.751h193.217v-193.217z" fill="#fdbf00"/><path d="m192.8 206.493h-32.487v185.823h96.583v-193.217h-64.096z" fill="#ff9100"/><path d="m186.919 257.893h-53.263c-3.291 0-5.959-2.668-5.959-5.959v-52.835h65.182v52.835c-.001 3.291-2.669 5.959-5.96 5.959z" fill="#ffe470"/><path d="m160.313 257.893h26.235c3.496 0 6.33-2.834 6.33-6.33v-52.464h-32.565z" fill="#ffda2d"/><g><path d="m386.013 199.099v7.393h-65.103v-7.393h-64.018v193.217h193.217v-179.277c0-7.699-6.241-13.94-13.94-13.94z" fill="#fdbf00"/><path d="m386.013 206.493h-32.487v185.824h96.583v-180.945c0-6.778-5.494-12.272-12.272-12.272h-51.824z" fill="#ff9100"/><path d="m380.132 257.893h-53.263c-3.291 0-5.959-2.668-5.959-5.959v-52.835h65.182v52.835c0 3.291-2.668 5.959-5.96 5.959z" fill="#ffe470"/><path d="m353.527 257.893h26.235c3.496 0 6.33-2.834 6.33-6.33v-52.464h-32.565z" fill="#ffda2d"/></g><path d="m512.123 440.712c0 4.57-3.705 8.276-8.276 8.276h-480.672-14.899c-4.57 0-8.276-3.705-8.276-8.276v-47.903c0-4.57 3.705-8.276 8.276-8.276h495.572c4.57 0 8.276 3.705 8.276 8.276v47.903z" fill="#012f7e"/><path d="m296.355 438.164h-40.299v64.116h40.299c3.025 0 5.477-2.452 5.477-5.477v-53.163c0-3.024-2.452-5.476-5.477-5.476z" fill="#292929"/><path d="m503.848 448.987c4.57 0 8.276-3.705 8.276-8.276v-47.903c0-4.57-3.705-8.276-8.276-8.276h-247.967v64.454h247.967z" fill="#141466"/></g></svg>